<?xml version="1.0" standalone="no"?>
<!DOCTYPE svg PUBLIC "-//W3C//DTD SVG 20010904//EN"
 "http://www.w3.org/TR/2001/REC-SVG-20010904/DTD/svg10.dtd">
<svg version="1.0" xmlns="http://www.w3.org/2000/svg"
 width="260.000000pt" height="260.000000pt" viewBox="0 0 260.000000 260.000000"
 preserveAspectRatio="xMidYMid meet">
<metadata>
Created by potrace 1.11, written by Peter Selinger 2001-2013
</metadata>
<g transform="translate(0.000000,260.000000) scale(0.100000,-0.100000)"
fill="#000000" stroke="none">
<path d="M1909 2345 c-4 -2 -4 -135 0 -136 36 -6 121 -2 124 6 1 5 2 26 1 45
-1 19 -2 46 -3 60 -1 24 -4 25 -61 26 -33 0 -60 0 -61 -1z"/>
<path d="M1239 2229 c-5 -3 -9 -12 -7 -20 2 -10 -12 -15 -52 -19 l-55 -5 -1
-47 0 -48 58 0 c54 0 58 -1 55 -22 -3 -19 -14 -24 -81 -35 -309 -52 -515 -274
-572 -613 -15 -90 -17 -315 -4 -377 5 -21 11 -51 14 -68 21 -121 92 -273 168
-358 117 -133 260 -206 453 -232 11 -1 23 -3 27 -4 4 0 8 -16 10 -33 3 -32 4
-33 51 -33 47 -1 47 -1 47 32 0 27 4 33 23 34 65 2 203 38 269 70 156 74 267
199 338 379 48 121 73 364 55 530 -31 274 -179 509 -385 608 -76 37 -182 65
-278 76 -39 4 -44 8 -36 29 5 15 43 17 358 19 l351 3 0 45 -1 45 -357 3 c-277
2 -357 5 -356 15 1 6 1 17 0 23 -1 11 -75 14 -92 3z m184 -404 c108 -18 210
-90 275 -194 25 -40 59 -127 67 -168 2 -16 9 -50 14 -76 14 -75 13 -253 -2
-352 -32 -206 -117 -339 -262 -406 -61 -28 -164 -49 -166 -33 0 5 -3 286 -6
625 l-5 616 24 -3 c12 -1 40 -5 61 -9z m-184 -202 c1 -115 3 -394 5 -620 l4
-413 -22 0 c-36 0 -139 35 -182 62 -91 58 -163 173 -200 318 -14 58 -18 111
-18 235 0 213 13 284 70 402 58 118 202 219 315 222 l27 1 1 -207z"/>
</g>
</svg>
